<svg width="16" height="16" viewBox="0 0 16 16" fill="none" xmlns="http://www.w3.org/2000/svg">
<g id="dribbble-ball-mark">
<path id="Shape" fill-rule="evenodd" clip-rule="evenodd" d="M8.29083 0.708984C4.14536 0.708984 0.781738 4.07261 0.781738 8.21808C0.781738 12.3636 4.14536 15.7272 8.29083 15.7272C12.4282 15.7272 15.7999 12.3636 15.7999 8.21808C15.7999 4.07261 12.4282 0.708984 8.29083 0.708984ZM13.2507 4.17034C14.1466 5.26168 14.6841 6.65437 14.7004 8.16107C14.4886 8.12034 12.3711 7.68871 10.2373 7.95746C10.1884 7.85159 10.1477 7.73756 10.0988 7.62354C9.96853 7.31406 9.82192 6.99643 9.67533 6.69509C12.0372 5.73406 13.1122 4.34952 13.2507 4.17034ZM8.29063 1.81681C9.9195 1.81681 11.4099 2.42764 12.542 3.4294C12.428 3.59228 11.4588 4.88724 9.17837 5.74239C8.12774 3.81218 6.9631 2.23218 6.78393 1.98784C7.26444 1.87382 7.76939 1.81681 8.29063 1.81681ZM5.56248 2.41933C5.73351 2.64737 6.87372 4.23553 7.94063 6.12501C4.94351 6.92315 2.2966 6.90688 2.01154 6.90688C2.42689 4.91965 3.77072 3.26635 5.56248 2.41933ZM1.87312 8.22627C1.87312 8.16112 1.87312 8.09597 1.87312 8.03081C2.15002 8.03895 5.26117 8.07968 8.46189 7.11865C8.64922 7.477 8.82024 7.84349 8.98313 8.20999C8.90169 8.23443 8.8121 8.25886 8.73066 8.28328C5.42406 9.3502 3.66488 12.2659 3.51828 12.5102C2.50023 11.3781 1.87312 9.87144 1.87312 8.22627ZM8.29071 14.636C6.80844 14.636 5.44018 14.131 4.35698 13.284C4.47101 13.0478 5.77411 10.5393 9.39019 9.27697C9.40649 9.26883 9.41463 9.26883 9.43092 9.26068C10.3349 11.5981 10.7014 13.5609 10.7992 14.1229C10.0255 14.4568 9.17845 14.636 8.29071 14.636ZM11.8665 13.5365C11.8013 13.1455 11.4593 11.2723 10.6204 8.96748C12.6321 8.64985 14.3912 9.17109 14.6111 9.24439C14.3342 11.028 13.308 12.5673 11.8665 13.5365Z" fill="#5D87A8"/>
</g>
</svg>
