<svg width="16" height="16" viewBox="0 0 16 16" fill="none" xmlns="http://www.w3.org/2000/svg">
<g id="Logo Linkedin">
<path id="Fill 1" fill-rule="evenodd" clip-rule="evenodd" d="M13.7792 13.5066H11.5533V10.0212C11.5533 9.19006 11.538 8.12096 10.3958 8.12096C9.23678 8.12096 9.05886 9.02632 9.05886 9.9611V13.5066H6.83331V6.33942H8.96969V7.31874H8.99952C9.29696 6.75534 10.0235 6.16129 11.1072 6.16129C13.3628 6.16129 13.7792 7.6458 13.7792 9.57543V13.5066ZM4.32301 5.35955C3.60904 5.35955 3.03128 4.78083 3.03128 4.06778C3.03128 3.35535 3.60904 2.77663 4.32301 2.77663C5.03521 2.77663 5.61392 3.35535 5.61392 4.06778C5.61392 4.78083 5.03521 5.35955 4.32301 5.35955ZM3.20834 13.5066H5.43598V6.33941H3.20834V13.5066ZM14.888 0.708984H2.08994C1.47839 0.708984 0.981445 1.19374 0.981445 1.79113V14.6436C0.981445 15.2417 1.47839 15.7272 2.08994 15.7272H14.888C15.5006 15.7272 15.9996 15.2417 15.9996 14.6436V1.79113C15.9996 1.19374 15.5006 0.708984 14.888 0.708984Z" fill="#5D87A8"/>
</g>
</svg>
