<svg width="24" height="15" viewBox="0 0 24 15" fill="none" xmlns="http://www.w3.org/2000/svg">
<g id="Logo Be">
<path id="Fill 46" fill-rule="evenodd" clip-rule="evenodd" d="M6.35603 12.29C6.65639 12.29 6.9455 12.2628 7.21582 12.2027C7.49178 12.1427 7.73489 12.0469 7.94045 11.9061C8.14507 11.771 8.31778 11.5851 8.44074 11.3495C8.56464 11.1158 8.62378 10.8117 8.62378 10.4447C8.62378 9.72567 8.42103 9.21411 8.01836 8.90436C7.61568 8.59837 7.07784 8.44631 6.4161 8.44631H3.07549V12.29H6.35603ZM6.18426 6.34838C6.72773 6.34838 7.18015 6.21978 7.53684 5.95697C7.8907 5.69884 8.06247 5.2727 8.06247 4.68793C8.06247 4.36316 8.00428 4.09471 7.8907 3.88633C7.7715 3.67796 7.61568 3.51557 7.41857 3.40106C7.22145 3.28185 6.99806 3.20019 6.74087 3.15607C6.48744 3.10633 6.22181 3.08755 5.9496 3.08755H3.07549V6.34838H6.18426ZM6.58078 0.708984C7.24909 0.708984 7.85264 0.766241 8.40362 0.886387C8.95084 1.00184 9.41828 1.19614 9.81157 1.46177C10.2011 1.72834 10.5052 2.08127 10.7239 2.52619C10.9361 2.96547 11.0421 3.51551 11.0421 4.16411C11.0421 4.86715 10.8835 5.45473 10.5644 5.92405C10.2433 6.39243 9.77121 6.77539 9.14045 7.07388C9.9993 7.32074 10.6348 7.75627 11.0581 8.37389C11.4814 8.99621 11.6888 9.74149 11.6888 10.6154C11.6888 11.3222 11.5527 11.9323 11.2815 12.4438C11.0093 12.9638 10.6366 13.3834 10.1786 13.7082C9.71583 14.0358 9.1855 14.276 8.59041 14.4319C8.00188 14.5877 7.39177 14.6675 6.7657 14.6675H0V0.708984H6.58078Z" fill="#5D87A8"/>
<path id="Fill 47" fill-rule="evenodd" clip-rule="evenodd" d="M19.7934 6.93328C19.464 6.56908 18.9055 6.37103 18.2231 6.37103C17.7801 6.37103 17.4131 6.44518 17.1202 6.59818C16.832 6.74836 16.5974 6.93421 16.4162 7.15479C16.2369 7.37819 16.1149 7.61379 16.0427 7.86628C15.9732 8.11314 15.9291 8.3356 15.9178 8.53271H20.4345C20.367 7.82498 20.1257 7.30122 19.7934 6.93328ZM16.6043 12.2442C17.021 12.6497 17.6217 12.8543 18.4008 12.8543C18.9593 12.8543 19.4427 12.7126 19.8491 12.43C20.2518 12.1484 20.4959 11.8471 20.5916 11.5346H23.0367C22.6416 12.751 22.0474 13.6193 21.2327 14.1421C20.4311 14.6677 19.4493 14.9277 18.307 14.9277C17.5119 14.9277 16.7948 14.8001 16.1509 14.5457C15.5098 14.2885 14.971 13.9281 14.5196 13.4588C14.0793 12.9876 13.7377 12.43 13.4927 11.7749C13.2524 11.1244 13.1304 10.4026 13.1304 9.62162C13.1304 8.86508 13.2561 8.16016 13.5039 7.50687C13.7564 6.85264 14.1056 6.28665 14.5609 5.81357C15.0227 5.33768 15.5643 4.96129 16.1997 4.68627C16.8342 4.41313 17.5326 4.27515 18.307 4.27515C19.1611 4.27515 19.9111 4.44035 20.5531 4.77544C21.1923 5.10584 21.717 5.55357 22.13 6.11394C22.5411 6.6743 22.8349 7.31445 23.017 8.03251C23.2001 8.74869 23.2639 9.49772 23.2104 10.2824H15.9181C15.9181 11.0812 16.1866 11.8368 16.6043 12.2442Z" fill="#5D87A8"/>
<path id="Fill 52" fill-rule="evenodd" clip-rule="evenodd" d="M15.3501 2.8782H21.0063V1.50122H15.3501V2.8782Z" fill="#5D87A8"/>
</g>
</svg>
